# xmcd CD database file
# Copyright (C) 1993-1998 Ti Kan
#
# Track frame offsets:
# 150
# 19148
# 32140
# 50350
# 68100
# 80783
# 100478
# 126158
# 143528
# 163273
# 175078
# 185903
# 207463
# 221328
#
# Disc length: 3143 seconds
#
# Revision: 1
# Processed by: cddbd v1.4b41PL1 Copyright (c) Steve Scherf et al.
# Submitted via: MediaSauce 1.5 http://www.flatcracker.com
#
DISCID=d00c450e
DTITLE=Bob Dylan - All I Really Want To Do
DYEAR=1900
DGENRE=
TTITLE0=It's All Over Now, Baby Blue
TTITLE1=Love Minus Zero
TTITLE2=All I Really Want To Do
TTITLE3=Maggie's Farm
TTITLE4=She Belongs To Me
TTITLE5=My Back Pages
TTITLE6=Gates Of Eden
TTITLE7=To Ramona
TTITLE8=I Don't Believe You
TTITLE9=On The Road Again
TTITLE10=Spanish Harlem Incident
TTITLE11=I Shall Be Free No. 10
TTITLE12=Outlaw Blue
TTITLE13=Black Crow Blues
EXTD=
EXTT0=
EXTT1=
EXTT2=
EXTT3=
EXTT4=
EXTT5=
EXTT6=
EXTT7=
EXTT8=
EXTT9=
EXTT10=
EXTT11=
EXTT12=
EXTT13=
PLAYORDER=
